Coordinates
version=1
nRows=14
nColumns=24
inDegrees=yes

Units are S.I. units (second, meters, Newtons, ...)
Angles are in degrees.

endheader
time	pelvis_tilt	pelvis_list	pelvis_rotation	pelvis_tx	pelvis_ty	pelvis_tz	hip_flexion_r	hip_adduction_r	hip_rotation_r	knee_angle_r	ankle_angle_r	subtalar_angle_r	mtp_angle_r	hip_flexion_l	hip_adduction_l	hip_rotation_l	knee_angle_l	ankle_angle_l	subtalar_angle_l	mtp_angle_l	lumbar_extension	lumbar_bending	lumbar_rotation
      1.39600000	      1.50473644	      4.19939387	     -3.58346449	      0.24961268	      1.02265072	      0.31933668	     12.20929136	     -4.03398973	      0.40470097	    -61.15230868	      3.21380132	    -17.96879570	      1.87565362	      5.33110697	      8.73507466	      0.10788097	    -10.73684002	      1.95175440	    -16.57614547	      6.32159171	     -4.38866023	     -6.22366794	      5.95497522
      1.40016667	      1.50692738	      4.08126416	     -3.44297493	      0.25461243	      1.02337148	      0.31922827	     12.64780173	     -3.87394668	      0.35089466	    -60.52596580	      3.47726423	    -17.88280401	      1.76997267	      4.79588061	      8.64077227	      0.31802047	    -10.33411804	      1.99060344	    -16.58156303	      6.24907307	     -4.43483546	     -6.10222523	      5.67748662
      1.40433333	      1.46944559	      3.95038698	     -3.29434212	      0.25961131	      1.02399827	      0.31912973	     13.11515299	     -3.69525656	      0.29236787	    -59.85419655	      3.73485192	    -17.81410598	      1.73156311	      4.31953316	      8.52016322	      0.48141919	     -9.96384631	      2.02840661	    -16.50240815	      6.21985623	     -4.43372361	     -5.95015506	      5.52262119
      1.40850000	      1.50621686	      3.84705840	     -3.13903240	      0.26457784	      1.02467928	      0.31902561	     13.49270391	     -3.56111581	      0.21681770	    -59.14773128	      3.98729284	    -17.70275531	      1.61241336	      3.73864772	      8.44080341	      0.74208563	     -9.53501851	      2.04776364	    -16.57223948	      6.12391693	     -4.52525844	     -5.86702257	      5.08059996
      1.41266667	      1.51660729	      3.72951891	     -2.97508853	      0.26954580	      1.02529727	      0.31890253	     13.88320019	     -3.41533907	      0.12683599	    -58.39438636	      4.20489391	    -17.57804865	      1.52755475	      3.20261621	      8.33818988	      0.96651344	     -9.14311199	      2.11723744	    -16.56955695	      6.04994917	     -4.58238911	     -5.74242738	      4.79655793
      1.41683333	      1.51139861	      3.61145898	     -2.80798058	      0.27450895	      1.02584992	      0.31879480	     14.27868765	     -3.26816828	      0.03300310	    -57.60443874	      4.41320958	    -17.47792084	      1.45426538	      2.68666861	      8.22863687	      1.18224036	     -8.75315041	      2.16802989	    -16.55738659	      5.98063218	     -4.62032739	     -5.61764721	      4.49949448
      1.42100000	      1.50974147	      3.49991280	     -2.63855603	      0.27945494	      1.02636439	      0.31868601	     14.66145631	     -3.13360885	     -0.06979957	    -56.78196213	      4.61440725	    -17.37312996	      1.39510460	      2.17374245	      8.12185760	      1.38418797	     -8.37118427	      2.21831847	    -16.53377091	      5.92014387	     -4.66146810	     -5.49834807	      4.21777376
      1.42516667	      1.51004364	      3.38803109	     -2.46366598	      0.28439131	      1.02684101	      0.31858096	     15.02825644	     -3.00001132	     -0.17625919	    -55.92227404	      4.79768309	    -17.28557593	      1.33646117	      1.66016441	      8.01142486	      1.60247141	     -7.98921046	      2.26517289	    -16.52085477	      5.85717342	     -4.71072131	     -5.38393424	      3.90274431
      1.42933333	      1.49794949	      3.28317208	     -2.28690367	      0.28931827	      1.02725708	      0.31848011	     15.39925072	     -2.87825718	     -0.29060943	    -55.03364428	      4.96928939	    -17.19594371	      1.28252242	      1.16655766	      7.90485386	      1.81233666	     -7.61605873	      2.31294310	    -16.50624379	      5.79545573	     -4.74439006	     -5.27553926	      3.59567777
      1.43350000	      1.45769810	      3.16554910	     -2.10483180	      0.29424011	      1.02760357	      0.31838448	     15.78343466	     -2.74107591	     -0.40834166	    -54.10258439	      5.13339233	    -17.11997587	      1.25671199	      0.72345045	      7.77588827	      1.98034452	     -7.28085956	      2.34831876	    -16.43429612	      5.76463975	     -4.74261132	     -5.15175522	      3.40601543
      1.43766667	      1.48218862	      3.07886056	     -1.93206985	      0.29912963	      1.02796806	      0.31829717	     16.09839257	     -2.64789119	     -0.52739820	    -53.16248585	      5.26141043	    -17.06256730	      1.20160059	      0.18684489	      7.68580523	      2.22007266	     -6.89049251	      2.41041294	    -16.45651511	      5.69897177	     -4.82766239	     -5.07091544	      2.97592424
      1.44183333	      1.46937367	      2.98144335	     -1.75306717	      0.30402769	      1.02824989	      0.31820908	     16.43710938	     -2.54479680	     -0.65763410	    -52.18633435	      5.38945794	    -17.01197956	      1.13945655	     -0.29279661	      7.57668307	      2.42628704	     -6.53109359	      2.43703763	    -16.45719208	      5.62091733	     -4.85960543	     -4.96872497	      2.66556373
      1.44600000	      1.41854242	      2.88084357	     -1.57577136	      0.30892634	      1.02844694	      0.31813148	     16.80259093	     -2.43875419	     -0.78785275	    -51.17389340	      5.48899043	    -16.93654250	      1.11755502	     -0.70714846	      7.45744153	      2.58193214	     -6.22207870	      2.51096882	    -16.38649596	      5.59444589	     -4.84448298	     -4.86007640	      2.50382406
      1.45016667	      1.38619645	      2.79092009	     -1.39887534	      0.31381137	      1.02860766	      0.31805466	     17.14092349	     -2.34992274	     -0.92386406	    -50.14445536	      5.56570072	    -16.89625799	      1.09248030	     -1.14372762	      7.34911119	      2.75804770	     -5.90320597	      2.58271009	    -16.33722173	      5.56515191	     -4.85616359	     -4.76491511	      2.24014972
